<?xml version="1.0" encoding="utf-8"?>
<!-- Generator: Adobe Illustrator 16.0.0, SVG Export Plug-In . SVG Version: 6.00 Build 0)  -->
<!DOCTYPE svg PUBLIC "-//W3C//DTD SVG 1.1//EN" "http://www.w3.org/Graphics/SVG/1.1/DTD/svg11.dtd">
<svg version="1.1" id="Layer_1" xmlns="http://www.w3.org/2000/svg" xmlns:xlink="http://www.w3.org/1999/xlink" x="0px" y="0px"
	 width="550px" height="550px" viewBox="0 0 550 550" enable-background="new 0 0 550 550" xml:space="preserve">
<g>
	<g>
		<path fill="#CCA42C" d="M367.7,70.6l-4.2-10.8l-11.5-1.3c-41.4-4.9-78.5-16.2-107.5-32.9L235,20l-9.6,5.5
			c-28.9,16.7-66.1,28.1-107.5,32.9l-11.5,1.3l-4.2,10.8C91,99.6,85,132.4,85,165.5c0,181.7,146.1,202.5,147.5,202.6l3,0.4l2.9-0.5
			c1.5-0.3,146.5-28.7,146.5-202.5C385,132.4,379,99.6,367.7,70.6z M235,349.1c-6.1-0.9-130.8-20.6-130.8-183.6
			c0-30.7,5.5-61.1,16-87.9c43.9-5.2,83.7-17.4,114.8-35.4c31.2,18,70.9,30.2,114.8,35.4c10.4,26.8,16,57.2,16,87.9
			C365.8,321.9,240.5,348,235,349.1z"/>
		<path fill="#CCA42C" d="M326.2,97.4c-46.5-2.3-83.1-18.1-83.4-18.3c-2.5-1.1-5.1-1.6-7.7-1.6c-7.6,0-14.5,4.5-17.6,11.4
			c-4.3,9.7,0.1,21,9.8,25.3c1.7,0.8,43,18.8,97,21.5c0.3,0,0.7,0,1,0c10.2,0,18.7-8,19.2-18.3c0.3-5.1-1.5-10-4.9-13.8
			C336,99.9,331.3,97.6,326.2,97.4z M235,96.7C235,96.7,235,96.7,235,96.7c1.5,0.7,40,17.4,90.3,19.8C274.7,114,236.6,97.4,235,96.7
			z"/>
	</g>
</g>
<g>
	<g>
		<path d="M117.1,236.5l8.4-44.7h7.4l-3.6,18.6h0.1c2.6-3.2,6-5.3,10.3-5.3c4.2,0,7.7,2.6,7.7,8.3c0,1.6-0.2,3.7-0.5,5.4l-3.4,17.7
			h-7.3l3.3-17.2c0.2-1.2,0.4-2.5,0.4-4c0-2.3-1.1-4.2-3.8-4.2c-3.6,0-7.6,4.3-8.8,10.8l-2.8,14.6H117.1z"/>
		<path d="M167.4,197.4l-1.6,8.4h6.9l-1.1,5.7h-6.9l-2.5,12.4c-0.3,1.4-0.5,3-0.5,4.3c0,1.6,0.8,2.7,2.7,2.7c0.9,0,1.8,0,2.5-0.1
			l-0.7,5.7c-1.1,0.4-3,0.6-4.8,0.6c-5,0-7.3-2.8-7.3-6.3c0-1.8,0.2-3.5,0.7-5.7l2.6-13.7h-4.2l1.1-5.7h4.2l1.3-6.6L167.4,197.4z"/>
		<path d="M188.4,197.4l-1.6,8.4h6.9l-1.1,5.7h-6.9l-2.5,12.4c-0.3,1.4-0.5,3-0.5,4.3c0,1.6,0.8,2.7,2.7,2.7c0.9,0,1.8,0,2.5-0.1
			l-0.7,5.7c-1.1,0.4-3,0.6-4.8,0.6c-5,0-7.3-2.8-7.3-6.3c0-1.8,0.2-3.5,0.7-5.7l2.6-13.7h-4.2l1.1-5.7h4.2l1.3-6.6L188.4,197.4z"/>
		<path d="M191.1,249l6-31.8c0.7-3.7,1.4-8.3,1.8-11.4h6.6l-0.7,5h0.1c2.6-3.7,6.4-5.7,10.4-5.7c6.6,0,9.7,5.4,9.7,11.4
			c0,10.7-7.4,20.7-17.9,20.7c-2.8,0-5-0.6-6.1-1.3h-0.1l-2.5,13.1H191.1z M202.1,230c1.1,0.9,2.8,1.5,4.9,1.5
			c5.7,0,10.3-7.6,10.3-14.4c0-2.8-1.3-6-4.9-6c-3.7,0-7.7,4.2-9.1,11.4L202.1,230z"/>
		<path d="M228.8,229.6c1.6,0.9,4.6,2.1,7.4,2.1c3-0.1,4.7-1.8,4.7-3.8c0-2-1-3.2-4-4.7c-3.5-1.8-6-4.5-6-8
			c0-5.9,5.2-10.1,12.4-10.1c3.2,0,5.9,0.8,7.2,1.6l-1.9,5.3c-1.1-0.6-3.2-1.4-5.7-1.4c-2.8,0-4.7,1.5-4.7,3.6c0,1.7,1.4,2.9,4,4.2
			c3.3,1.8,6.4,4.3,6.4,8.3c0,6.7-5.7,10.5-13,10.5c-3.6,0-6.9-1-8.6-2.2L228.8,229.6z"/>
		<path fill="#EE1C4E" d="M253,232.7c0-3,2.1-5.4,5.2-5.4c2.6,0,4.4,2,4.4,4.6c0,3-2.1,5.3-5.2,5.3C254.7,237.2,253,235.2,253,232.7
			z M257,211.5c0-2.9,2.1-5.4,5.2-5.4c2.6,0,4.4,2,4.4,4.7c0,3-2.1,5.2-5.2,5.2C258.8,216,257,214,257,211.5z"/>
		<path d="M263.9,239l23.4-45.7h5.5L269.3,239H263.9z"/>
		<path d="M284.4,239l23.4-45.7h5.5L289.8,239H284.4z"/>
	</g>
	<g>
		<path fill="#999999" d="M347.2,213.4v-11.8c0-6.1-4.7-11.1-10.4-11.1h-4c-5.7,0-10.4,5-10.4,11.1v11.8c-3.5,3.4-5.7,8.2-5.7,13.6
			c0,10.3,8.1,18.7,18.1,18.7c10,0,18.1-8.4,18.1-18.7C352.9,221.6,350.7,216.8,347.2,213.4z M325.9,210.7v-9.2
			c0-4.2,3.1-7.7,6.9-7.7h4c3.8,0,6.9,3.4,6.9,7.7v9.2c-0.5-0.3-1-0.5-1.4-0.8c0,0,0,0-0.1,0c-0.1,0-0.1-0.1-0.2-0.1
			c-0.1,0-0.2-0.1-0.3-0.1c0,0-0.1,0-0.1-0.1c-0.2-0.1-0.3-0.1-0.5-0.2c0,0,0,0,0,0c-1.6-0.6-3.3-1-5.1-1.1c0,0-0.1,0-0.1,0
			c-0.1,0-0.3,0-0.4,0c0,0-0.1,0-0.1,0c-0.2,0-0.4,0-0.5,0c-0.2,0-0.4,0-0.5,0c0,0-0.1,0-0.1,0c-0.1,0-0.3,0-0.4,0c0,0-0.1,0-0.1,0
			c-1.8,0.1-3.5,0.5-5.1,1.1c0,0,0,0,0,0c-0.2,0.1-0.3,0.1-0.5,0.2c0,0-0.1,0-0.1,0.1c-0.1,0-0.2,0.1-0.3,0.1
			c-0.1,0-0.1,0.1-0.2,0.1c0,0,0,0-0.1,0C326.8,210.2,326.3,210.4,325.9,210.7z M334.8,242.1c-8.1,0-14.6-6.8-14.6-15.2
			c0-5.7,3-10.6,7.5-13.3c0.1,0,0.1-0.1,0.2-0.1c0.1,0,0.2-0.1,0.2-0.1c0.1-0.1,0.3-0.1,0.4-0.2c0,0,0.1,0,0.1-0.1
			c1.5-0.7,3.2-1.2,4.8-1.4c0,0,0,0,0,0c0.2,0,0.4,0,0.6,0c0,0,0,0,0.1,0c0.2,0,0.4,0,0.6,0c0.2,0,0.4,0,0.6,0c0,0,0,0,0.1,0
			c0.2,0,0.4,0,0.6,0c0,0,0,0,0,0c1.7,0.2,3.3,0.6,4.9,1.4c0,0,0.1,0,0.1,0.1c0.1,0.1,0.3,0.1,0.4,0.2c0.1,0,0.2,0.1,0.2,0.1
			c0.1,0,0.1,0.1,0.2,0.1c4.5,2.6,7.5,7.6,7.5,13.3C349.4,235.3,342.9,242.1,334.8,242.1z"/>
		<path fill="#999999" d="M339.9,224.1c0-2.8-2.3-5.1-5.1-5.1s-5.1,2.3-5.1,5.1c0,1.4,0.6,2.8,1.6,3.7l-1.2,5.5c0,0.1,0,0.2,0,0.4
			c0,1.5,1.5,2.6,3.4,2.6h2.7c1.9,0,3.4-1.1,3.4-2.6c0-0.1,0-0.3,0-0.4l-1.2-5.5C339.3,226.9,339.9,225.6,339.9,224.1z M333.7,232.9
			l1.1-4.8l1.1,4.8H333.7z M335.5,225.6c-0.3,0.2-0.6,0.4-0.8,0.8c-0.2-0.3-0.4-0.6-0.8-0.8c-0.5-0.3-0.9-0.8-0.9-1.5
			c0-0.9,0.7-1.6,1.6-1.6c0.9,0,1.6,0.7,1.6,1.6C336.4,224.7,336.1,225.3,335.5,225.6z"/>
	</g>
</g>
<g>
</g>
<rect y="424.8" fill="#CC2036" width="550" height="125.2"/>
<g>
	<path fill="#FFFFFF" d="M36.4,456.6v25.9h25.1v-25.9h15.2V524H61.5v-28.2H36.4V524H21.1v-67.4H36.4z"/>
	<path fill="#FFFFFF" d="M103,469.4H84.9v-12.8h51.8v12.8h-18.4V524H103V469.4z"/>
	<path fill="#FFFFFF" d="M160,469.4h-18.1v-12.8h51.8v12.8h-18.4V524H160V469.4z"/>
	<path fill="#FFFFFF" d="M201.8,457.5c4.7-0.8,11.3-1.4,20.6-1.4c9.4,0,16.1,1.8,20.6,5.4c4.3,3.4,7.2,9,7.2,15.6
		c0,6.6-2.2,12.2-6.2,16c-5.2,4.9-12.9,7.1-21.9,7.1c-2,0-3.8-0.1-5.2-0.3V524h-15.1V457.5z M216.9,488.1c1.3,0.3,2.9,0.4,5.1,0.4
		c8.1,0,13.1-4.1,13.1-11c0-6.2-4.3-9.9-11.9-9.9c-3.1,0-5.2,0.3-6.3,0.6V488.1z"/>
	<path fill="#FFFFFF" d="M295.8,506.7L291,524h-15.8l20.6-67.4h20l20.9,67.4h-16.4l-5.2-17.3H295.8z M312.9,495.3l-4.2-14.3
		c-1.2-4-2.4-9-3.4-13h-0.2c-1,4-2,9.1-3.1,13l-4,14.3H312.9z"/>
	<path fill="#FFFFFF" d="M357.4,456.6v38.8c0,11.6,4.4,17.5,12.2,17.5c8,0,12.4-5.6,12.4-17.5v-38.8h15.2v37.8
		c0,20.8-10.5,30.7-28.1,30.7c-17,0-27-9.4-27-30.9v-37.6H357.4z"/>
	<path fill="#FFFFFF" d="M423.4,469.4h-18.1v-12.8h51.8v12.8h-18.4V524h-15.3V469.4z"/>
	<path fill="#FFFFFF" d="M480.5,456.6v25.9h25.1v-25.9h15.2V524h-15.2v-28.2h-25.1V524h-15.3v-67.4H480.5z"/>
</g>
<g>
	<g>
		<path fill="#7F7F7F" d="M482.2,225.6c-3.3-0.9-4.5,14.8-13,13.9c-8.4-1-9.5-14.5-12.6-13.6c-33.8,9.8-48.5,35-47.4,72.6
			c0.2,5.3,4.5,9.5,9.8,9.5c0.1,0,0.2,0,0.3,0c5.4-0.2,9.7-4.7,9.5-10.1c-0.4-13.7,2.5-25.4,8.4-34.6c0,0.5-0.1,1-0.1,1.5v40.4h19.3
			v8.5h-19.3v111.9c0,6.8,5.5,12.3,12.3,12.3c6.8,0,12.3-5.5,12.3-12.3c0,0-2.6-96.1,6.6-96.2c9.2-0.1,7.7,96.2,7.7,96.2
			c0,6.8,5.5,12.3,12.3,12.3c6.8,0,12.3-5.5,12.3-12.3l0.2-111.9h-3.3l2.6,11.6l-6.5,1.5l-2.9-13.1h-12v-8.5h3.3l-3.9-1l-2.4-10.7
			l18.4,4.6l0.1,0.6l1.4,6.5h5.2l0.1-40.4c0-0.9-0.1-1.8-0.1-2.7c6.3,9.3,9.4,21.3,9,35.5c-0.2,5.4,4.1,10,9.5,10.1
			c0.1,0,0.2,0,0.3,0c5.3,0,9.7-4.2,9.8-9.5C530.7,260.6,515.9,235.4,482.2,225.6z"/>
		<path fill="#7F7F7F" d="M471.9,221.2c13.3-1.4,23-13.3,21.7-26.6l-48.3,4.9C446.7,212.9,458.6,222.6,471.9,221.2z"/>
		<polygon fill="#7F7F7F" points="495,190 495,173.3 437.6,173.3 446.9,190 433.4,195.8 		"/>
	</g>
</g>
<g>
</g>
<g>
</g>
<g>
</g>
<g>
</g>
<g>
</g>
<g>
</g>
</svg>
